<svg xmlns="http://www.w3.org/2000/svg" viewBox="0 0 307.06 299.36"><defs><style>.cls-1{fill:none;stroke:#241f20;stroke-miterlimit:10;stroke-width:17px;}.cls-2{fill:#241f20;}</style></defs><title>Asset 1</title><g id="Layer_2" data-name="Layer 2"><g id="Layer_1-2" data-name="Layer 1"><path class="cls-1" d="M298.56,170.75A120.18,120.18,0,1,1,178.4,50.66,120.11,120.11,0,0,1,298.56,170.75Z"/><path class="cls-1" d="M248.86,170A120.18,120.18,0,1,1,128.69,49.89,120.12,120.12,0,0,1,248.86,170Z"/><path class="cls-1" d="M274,128.59A120.18,120.18,0,1,1,153.87,8.5,120.11,120.11,0,0,1,274,128.59Z"/><path class="cls-2" d="M165.81,29.88a12,12,0,1,1-11.95-11.95A11.95,11.95,0,0,1,165.81,29.88Z"/><path class="cls-2" d="M55.26,220.41a12,12,0,1,1-11.95-11.95A11.95,11.95,0,0,1,55.26,220.41Z"/><path class="cls-2" d="M274,223.07a12,12,0,1,1-11.95-11.95A11.95,11.95,0,0,1,274,223.07Z"/><polygon class="cls-1" points="154.06 217.38 101.89 188.31 100.98 128.6 152.23 97.95 204.4 127.02 205.31 186.73 154.06 217.38"/><line class="cls-1" x1="152.23" y1="97.95" x2="154.06" y2="217.38"/><line class="cls-1" x1="204.4" y1="127.02" x2="101.89" y2="188.31"/><path class="cls-1" d="M101,128.6l104.33,58.13"/></g></g></svg>