<?xml version="1.0" encoding="UTF-8" standalone="no"?>
<!DOCTYPE svg PUBLIC "-//W3C//DTD SVG 1.1//EN" "http://www.w3.org/Graphics/SVG/1.1/DTD/svg11.dtd">
<svg width="100%" height="100%" viewBox="0 0 1280 800" version="1.1" xmlns="http://www.w3.org/2000/svg" xmlns:xlink="http://www.w3.org/1999/xlink" xml:space="preserve" xmlns:serif="http://www.serif.com/" style="fill-rule:evenodd;clip-rule:evenodd;stroke-linejoin:round;stroke-miterlimit:1.41421;">
    <g>
        <g transform="matrix(1.36636,0,0,1.36636,77.7436,59.8781)">
            <circle cx="411.5" cy="238.5" r="93.5" style="fill:white;"/>
        </g>
        <g transform="matrix(0.630738,0,0,0.630738,542.082,228.07)">
            <circle cx="640" cy="250" r="21" style="fill:white;"/>
        </g>
        <g transform="matrix(0.702595,0,0,0.702595,-110.906,210.106)">
            <circle cx="640" cy="250" r="21" style="fill:white;"/>
        </g>
        <g transform="matrix(0.33095,0,0,0.33095,699.667,303.017)">
            <circle cx="640" cy="250" r="21" style="fill:white;"/>
        </g>
        <g transform="matrix(0.33095,0,0,0.33095,161.192,303.017)">
            <circle cx="640" cy="250" r="21" style="fill:white;"/>
        </g>
        <g transform="matrix(1.65498,0,0,1.65498,-784.685,-27.9895)">
            <circle cx="640" cy="250" r="21" style="fill:white;"/>
        </g>
        <g transform="matrix(1.65498,0,0,1.65498,-48.4301,-27.9895)">
            <circle cx="640" cy="250" r="21" style="fill:white;"/>
        </g>
        <g transform="matrix(1.94069,0,0,1.94069,-368.312,-343.418)">
            <circle cx="640" cy="250" r="21" style="fill:white;"/>
        </g>
        <g transform="matrix(1.65498,0,0,1.65498,-641.43,-266.989)">
            <circle cx="640" cy="250" r="21" style="fill:white;"/>
        </g>
        <g transform="matrix(-4.14486e-17,-0.746672,1,-5.55112e-17,240,852.267)">
            <g>
                <path d="M688.746,0C688.746,0 782.569,85.513 827.353,208.473C829.375,214.027 875.849,329.325 872,400C867.513,482.377 846.868,547.72 823.353,600C776.253,704.713 719.076,749.26 694.103,791C710.424,765.387 697.008,742.472 686.067,731C686.067,731 837.338,606.051 838.353,400C839.476,171.964 676.692,77 676.692,77C700.12,68.974 711.096,26.11 688.746,0Z" style="fill:white;"/>
            </g>
        </g>
        <g transform="matrix(-3.74294e-17,0.674267,1,5.55112e-17,240,-29.1139)">
            <g>
                <path d="M682.391,0C682.391,0 782.569,85.513 827.353,208.473C829.375,214.027 875.849,329.325 872,400C867.513,482.377 846.868,547.72 823.353,600C776.253,704.713 719.229,760.26 694.256,802C714.545,773.513 694.685,740.436 679.425,732C679.425,732 841.083,606.051 842.098,400C843.221,171.964 677.942,74 677.942,74C701.701,61.041 704.894,20.976 682.391,0Z" style="fill:white;"/>
            </g>
        </g>
        <g transform="matrix(0.866025,0.5,-0.5,0.866025,293.026,-275.672)">
            <path d="M776.397,80.809C776.397,80.809 873.244,265.628 872,400C869.461,674.135 710.5,764.765 633.416,786.31C626.862,757.346 630.234,739.649 630.234,739.649C662.662,741.13 858.218,609.91 837.113,403.124C816.961,205.664 743,131 743,131C758.824,121.214 776.699,104.801 776.397,80.809Z" style="fill:white;"/>
            <g transform="matrix(-1,-1.11022e-16,-1.11022e-16,1,1286,5.68434e-14)">
                <path d="M651,0C717.756,18.089 878.686,133.833 872,400C865.106,674.455 733.637,786.947 652.584,786.31C648.093,755.584 644.41,736.836 656.266,738.783C673.887,755.215 829.274,636.509 840.237,399.285C849.791,192.55 686.197,71.878 641.389,68.55C641.574,68.25 651.376,31.163 651.299,14.081C651.263,6.308 651.172,0.493 651,0Z" style="fill:white;"/>
            </g>
            <g transform="matrix(1.97749e-18,1,-0.964377,-1.2326e-32,1020.79,-240)">
                <path d="M313.357,460.922L240,400.039C230.024,365.701 230.846,320.103 249.158,308.288C233.762,335.108 271.209,391.962 308.55,390.072" style="fill:white;"/>
            </g>
        </g>
    </g>
</svg>
